<?xml version="1.0" encoding="UTF-8" standalone="no"?>
<!-- Created with Inkscape (http://www.inkscape.org/) -->

<svg
   xmlns:dc="http://purl.org/dc/elements/1.1/"
   xmlns:cc="http://creativecommons.org/ns#"
   xmlns:rdf="http://www.w3.org/1999/02/22-rdf-syntax-ns#"
   xmlns:svg="http://www.w3.org/2000/svg"
   xmlns="http://www.w3.org/2000/svg"
   xmlns:xlink="http://www.w3.org/1999/xlink"
   xmlns:sodipodi="http://sodipodi.sourceforge.net/DTD/sodipodi-0.dtd"
   xmlns:inkscape="http://www.inkscape.org/namespaces/inkscape"
   version="1.0"
   width="911.96875"
   height="350"
   id="svg2"
   sodipodi:version="0.32"
   inkscape:version="0.48.2 r9819"
   sodipodi:docname="Squamocolumnar junction types.svg"
   inkscape:output_extension="org.inkscape.output.svg.inkscape"
   sodipodi:modified="true"
   inkscape:export-filename="\\vgregion.se\Hem\GOT-013\mikha19\Mina bilder\Wiki image edits\Squamocolumnar junction types.png"
   inkscape:export-xdpi="149.91429"
   inkscape:export-ydpi="149.91429">
  <metadata
     id="metadata34">
    <rdf:RDF>
      <cc:Work
         rdf:about="">
        <dc:format>image/svg+xml</dc:format>
        <dc:type
           rdf:resource="http://purl.org/dc/dcmitype/StillImage" />
        <dc:title></dc:title>
      </cc:Work>
    </rdf:RDF>
  </metadata>
  <sodipodi:namedview
     inkscape:cy="-51.889855"
     inkscape:cx="314.07426"
     inkscape:zoom="0.5"
     inkscape:window-height="988"
     inkscape:window-width="1269"
     inkscape:pageshadow="2"
     inkscape:pageopacity="0.0"
     guidetolerance="10.0"
     gridtolerance="10.0"
     objecttolerance="10.0"
     borderopacity="1.0"
     bordercolor="#666666"
     pagecolor="#ffffff"
     id="base"
     inkscape:window-x="1"
     inkscape:window-y="0"
     inkscape:current-layer="svg2"
     showgrid="false"
     inkscape:window-maximized="0"
     fit-margin-top="0"
     fit-margin-left="0"
     fit-margin-right="0"
     fit-margin-bottom="0" />
  <defs
     id="defs4">
    <linearGradient
       inkscape:collect="always"
       id="linearGradient5741">
      <stop
         style="stop-color:#ffffff;stop-opacity:1;"
         offset="0"
         id="stop5743" />
      <stop
         style="stop-color:#ffffff;stop-opacity:0;"
         offset="1"
         id="stop5745" />
    </linearGradient>
    <linearGradient
       inkscape:collect="always"
       id="linearGradient5699">
      <stop
         style="stop-color:#ae0a0a;stop-opacity:1;"
         offset="0"
         id="stop5701" />
      <stop
         style="stop-color:#ae0a0a;stop-opacity:0;"
         offset="1"
         id="stop5703" />
    </linearGradient>
    <marker
       inkscape:stockid="Arrow1Lend"
       orient="auto"
       refY="0"
       refX="0"
       id="Arrow1Lend"
       style="overflow:visible">
      <path
         id="path3920"
         d="M 0,0 5,-5 -12.5,0 5,5 0,0 z"
         style="fill-rule:evenodd;stroke:#000000;stroke-width:1pt;marker-start:none"
         transform="matrix(-0.8,0,0,-0.8,-10,0)"
         inkscape:connector-curvature="0" />
    </marker>
    <marker
       inkscape:stockid="Arrow2Lend"
       orient="auto"
       refY="0"
       refX="0"
       id="Arrow2Lend"
       style="overflow:visible">
      <path
         id="path3938"
         style="font-size:12px;fill-rule:evenodd;stroke-width:0.625;stroke-linejoin:round"
         d="M 8.7185878,4.0337352 -2.2072895,0.01601326 8.7185884,-4.0017078 c -1.7454984,2.3720609 -1.7354408,5.6174519 -6e-7,8.035443 z"
         transform="matrix(-1.1,0,0,-1.1,-1.1,0)"
         inkscape:connector-curvature="0" />
    </marker>
    <marker
       inkscape:stockid="Arrow1Lstart"
       orient="auto"
       refY="0"
       refX="0"
       id="Arrow1Lstart"
       style="overflow:visible">
      <path
         id="path3917"
         d="M 0,0 5,-5 -12.5,0 5,5 0,0 z"
         style="fill-rule:evenodd;stroke:#000000;stroke-width:1pt;marker-start:none"
         transform="matrix(0.8,0,0,0.8,10,0)"
         inkscape:connector-curvature="0" />
    </marker>
    <marker
       inkscape:stockid="Arrow2Mstart"
       orient="auto"
       refY="0"
       refX="0"
       id="Arrow2Mstart"
       style="overflow:visible">
      <path
         id="path3941"
         style="font-size:12px;fill-rule:evenodd;stroke-width:0.625;stroke-linejoin:round"
         d="M 8.7185878,4.0337352 -2.2072895,0.01601326 8.7185884,-4.0017078 c -1.7454984,2.3720609 -1.7354408,5.6174519 -6e-7,8.035443 z"
         transform="scale(0.6,0.6)"
         inkscape:connector-curvature="0" />
    </marker>
    <marker
       inkscape:stockid="Arrow1Mstart"
       orient="auto"
       refY="0"
       refX="0"
       id="Arrow1Mstart"
       style="overflow:visible">
      <path
         id="path3923"
         d="M 0,0 5,-5 -12.5,0 5,5 0,0 z"
         style="fill-rule:evenodd;stroke:#000000;stroke-width:1pt;marker-start:none"
         transform="matrix(0.4,0,0,0.4,4,0)"
         inkscape:connector-curvature="0" />
    </marker>
    <marker
       inkscape:stockid="Arrow1Lstart"
       orient="auto"
       refY="0"
       refX="0"
       id="Arrow1Lstart-1"
       style="overflow:visible">
      <path
         inkscape:connector-curvature="0"
         id="path3917-1"
         d="M 0,0 5,-5 -12.5,0 5,5 0,0 z"
         style="fill-rule:evenodd;stroke:#000000;stroke-width:1pt;marker-start:none"
         transform="matrix(0.8,0,0,0.8,10,0)" />
    </marker>
    <marker
       inkscape:stockid="Arrow1Lend"
       orient="auto"
       refY="0"
       refX="0"
       id="Arrow1Lend-2"
       style="overflow:visible">
      <path
         inkscape:connector-curvature="0"
         id="path3920-2"
         d="M 0,0 5,-5 -12.5,0 5,5 0,0 z"
         style="fill-rule:evenodd;stroke:#000000;stroke-width:1pt;marker-start:none"
         transform="matrix(-0.8,0,0,-0.8,-10,0)" />
    </marker>
    <linearGradient
       inkscape:collect="always"
       xlink:href="#linearGradient5699"
       id="linearGradient5705"
       x1="136.86034"
       y1="159.55942"
       x2="136.86034"
       y2="142.42659"
       gradientUnits="userSpaceOnUse"
       gradientTransform="translate(167.45834,-137)" />
    <linearGradient
       inkscape:collect="always"
       xlink:href="#linearGradient5741"
       id="linearGradient5747"
       x1="158.5"
       y1="429.0387"
       x2="158.5"
       y2="421.75"
       gradientUnits="userSpaceOnUse"
       gradientTransform="translate(167.45834,-135.75)" />
    <marker
       inkscape:stockid="Arrow1Lend"
       orient="auto"
       refY="0"
       refX="0"
       id="Arrow1Lend-2-9"
       style="overflow:visible">
      <path
         inkscape:connector-curvature="0"
         id="path3920-2-9"
         d="M 0,0 5,-5 -12.5,0 5,5 0,0 z"
         style="fill-rule:evenodd;stroke:#000000;stroke-width:1pt;marker-start:none"
         transform="matrix(-0.8,0,0,-0.8,-10,0)" />
    </marker>
    <marker
       inkscape:stockid="Arrow1Lend"
       orient="auto"
       refY="0"
       refX="0"
       id="Arrow1Lend-8"
       style="overflow:visible">
      <path
         inkscape:connector-curvature="0"
         id="path3920-3"
         d="M 0,0 5,-5 -12.5,0 5,5 0,0 z"
         style="fill-rule:evenodd;stroke:#000000;stroke-width:1pt;marker-start:none"
         transform="matrix(-0.8,0,0,-0.8,-10,0)" />
    </marker>
    <marker
       inkscape:stockid="Arrow1Lstart"
       orient="auto"
       refY="0"
       refX="0"
       id="Arrow1Lstart-8"
       style="overflow:visible">
      <path
         inkscape:connector-curvature="0"
         id="path3917-6"
         d="M 0,0 5,-5 -12.5,0 5,5 0,0 z"
         style="fill-rule:evenodd;stroke:#000000;stroke-width:1pt;marker-start:none"
         transform="matrix(0.8,0,0,0.8,10,0)" />
    </marker>
    <linearGradient
       inkscape:collect="always"
       xlink:href="#linearGradient5723-3"
       id="linearGradient5729-2"
       x1="161.51692"
       y1="158.14172"
       x2="161.29059"
       y2="144.05527"
       gradientUnits="userSpaceOnUse" />
    <linearGradient
       inkscape:collect="always"
       id="linearGradient5723-3">
      <stop
         style="stop-color:#ff9955;stop-opacity:1;"
         offset="0"
         id="stop5725-8" />
      <stop
         style="stop-color:#ff9955;stop-opacity:0;"
         offset="1"
         id="stop5727-2" />
    </linearGradient>
    <linearGradient
       inkscape:collect="always"
       xlink:href="#linearGradient5699-2"
       id="linearGradient5705-6"
       x1="136.86034"
       y1="159.55942"
       x2="136.86034"
       y2="142.42659"
       gradientUnits="userSpaceOnUse" />
    <linearGradient
       inkscape:collect="always"
       id="linearGradient5699-2">
      <stop
         style="stop-color:#ae0a0a;stop-opacity:1;"
         offset="0"
         id="stop5701-7" />
      <stop
         style="stop-color:#ae0a0a;stop-opacity:0;"
         offset="1"
         id="stop5703-5" />
    </linearGradient>
    <linearGradient
       inkscape:collect="always"
       xlink:href="#linearGradient5741-5"
       id="linearGradient5747-0"
       x1="158.5"
       y1="429.0387"
       x2="158.5"
       y2="421.75"
       gradientUnits="userSpaceOnUse"
       gradientTransform="translate(0,1.25)" />
    <linearGradient
       inkscape:collect="always"
       id="linearGradient5741-5">
      <stop
         style="stop-color:#ffffff;stop-opacity:1;"
         offset="0"
         id="stop5743-52" />
      <stop
         style="stop-color:#ffffff;stop-opacity:0;"
         offset="1"
         id="stop5745-7" />
    </linearGradient>
    <linearGradient
       y2="421.75"
       x2="158.5"
       y1="429.0387"
       x1="158.5"
       gradientTransform="matrix(1.1710145,0,0,1,143.00689,-434.875)"
       gradientUnits="userSpaceOnUse"
       id="linearGradient5914"
       xlink:href="#linearGradient5741-5"
       inkscape:collect="always" />
    <linearGradient
       y2="421.75"
       x2="158.5"
       y1="429.0387"
       x1="158.5"
       gradientTransform="matrix(1.1710145,0,0,1,378.37523,-436.72852)"
       gradientUnits="userSpaceOnUse"
       id="linearGradient5914-7"
       xlink:href="#linearGradient5741-5-8"
       inkscape:collect="always" />
    <linearGradient
       inkscape:collect="always"
       id="linearGradient5741-5-8">
      <stop
         style="stop-color:#ffffff;stop-opacity:1;"
         offset="0"
         id="stop5743-52-1" />
      <stop
         style="stop-color:#ffffff;stop-opacity:0;"
         offset="1"
         id="stop5745-7-6" />
    </linearGradient>
    <linearGradient
       inkscape:collect="always"
       xlink:href="#linearGradient5741-58"
       id="linearGradient5747-09"
       x1="158.5"
       y1="429.0387"
       x2="158.5"
       y2="421.75"
       gradientUnits="userSpaceOnUse"
       gradientTransform="translate(402.82668,-133.89648)" />
    <linearGradient
       inkscape:collect="always"
       id="linearGradient5741-58">
      <stop
         style="stop-color:#ffffff;stop-opacity:1;"
         offset="0"
         id="stop5743-9" />
      <stop
         style="stop-color:#ffffff;stop-opacity:0;"
         offset="1"
         id="stop5745-0" />
    </linearGradient>
    <marker
       inkscape:stockid="Arrow1Lend"
       orient="auto"
       refY="0"
       refX="0"
       id="Arrow1Lend-2-0"
       style="overflow:visible">
      <path
         inkscape:connector-curvature="0"
         id="path3920-2-0"
         d="M 0,0 5,-5 -12.5,0 5,5 0,0 z"
         style="fill-rule:evenodd;stroke:#000000;stroke-width:1pt;marker-start:none"
         transform="matrix(-0.8,0,0,-0.8,-10,0)" />
    </marker>
    <marker
       inkscape:stockid="Arrow1Lend"
       orient="auto"
       refY="0"
       refX="0"
       id="Arrow1Lend-7"
       style="overflow:visible">
      <path
         inkscape:connector-curvature="0"
         id="path3920-25"
         d="M 0,0 5,-5 -12.5,0 5,5 0,0 z"
         style="fill-rule:evenodd;stroke:#000000;stroke-width:1pt;marker-start:none"
         transform="matrix(-0.8,0,0,-0.8,-10,0)" />
    </marker>
    <marker
       inkscape:stockid="Arrow1Lstart"
       orient="auto"
       refY="0"
       refX="0"
       id="Arrow1Lstart-5"
       style="overflow:visible">
      <path
         inkscape:connector-curvature="0"
         id="path3917-2"
         d="M 0,0 5,-5 -12.5,0 5,5 0,0 z"
         style="fill-rule:evenodd;stroke:#000000;stroke-width:1pt;marker-start:none"
         transform="matrix(0.8,0,0,0.8,10,0)" />
    </marker>
    <linearGradient
       inkscape:collect="always"
       xlink:href="#linearGradient5699-4"
       id="linearGradient5705-1"
       x1="136.86034"
       y1="159.55942"
       x2="136.86034"
       y2="142.42659"
       gradientUnits="userSpaceOnUse" />
    <linearGradient
       inkscape:collect="always"
       id="linearGradient5699-4">
      <stop
         style="stop-color:#ae0a0a;stop-opacity:1;"
         offset="0"
         id="stop5701-8" />
      <stop
         style="stop-color:#ae0a0a;stop-opacity:0;"
         offset="1"
         id="stop5703-6" />
    </linearGradient>
    <linearGradient
       gradientTransform="translate(402.82668,-135.14648)"
       y2="142.42659"
       x2="136.86034"
       y1="159.55942"
       x1="136.86034"
       gradientUnits="userSpaceOnUse"
       id="linearGradient5977"
       xlink:href="#linearGradient5699-4"
       inkscape:collect="always" />
    <linearGradient
       y2="421.75"
       x2="158.5"
       y1="429.0387"
       x1="158.5"
       gradientTransform="matrix(1.1710145,0,0,1,617.37523,-437.22852)"
       gradientUnits="userSpaceOnUse"
       id="linearGradient5914-7-7"
       xlink:href="#linearGradient5741-5-8-2"
       inkscape:collect="always" />
    <linearGradient
       inkscape:collect="always"
       id="linearGradient5741-5-8-2">
      <stop
         style="stop-color:#ffffff;stop-opacity:1;"
         offset="0"
         id="stop5743-52-1-1" />
      <stop
         style="stop-color:#ffffff;stop-opacity:0;"
         offset="1"
         id="stop5745-7-6-4" />
    </linearGradient>
    <linearGradient
       inkscape:collect="always"
       xlink:href="#linearGradient5741-58-9"
       id="linearGradient5747-09-9"
       x1="158.5"
       y1="429.0387"
       x2="158.5"
       y2="421.75"
       gradientUnits="userSpaceOnUse"
       gradientTransform="translate(641.82668,-133.39648)" />
    <linearGradient
       inkscape:collect="always"
       id="linearGradient5741-58-9">
      <stop
         style="stop-color:#ffffff;stop-opacity:1;"
         offset="0"
         id="stop5743-9-0" />
      <stop
         style="stop-color:#ffffff;stop-opacity:0;"
         offset="1"
         id="stop5745-0-3" />
    </linearGradient>
    <linearGradient
       gradientTransform="translate(235.36834,1.8535193)"
       y2="142.42659"
       x2="136.86034"
       y1="159.55942"
       x1="136.86034"
       gradientUnits="userSpaceOnUse"
       id="linearGradient5977-0"
       xlink:href="#linearGradient5699-4-3"
       inkscape:collect="always" />
    <linearGradient
       inkscape:collect="always"
       id="linearGradient5699-4-3">
      <stop
         style="stop-color:#ae0a0a;stop-opacity:1;"
         offset="0"
         id="stop5701-8-5" />
      <stop
         style="stop-color:#ae0a0a;stop-opacity:0;"
         offset="1"
         id="stop5703-6-0" />
    </linearGradient>
    <linearGradient
       y2="142.42659"
       x2="136.86034"
       y1="159.55942"
       x1="136.86034"
       gradientTransform="translate(641.82668,-134.64648)"
       gradientUnits="userSpaceOnUse"
       id="linearGradient6089"
       xlink:href="#linearGradient5699-4-3"
       inkscape:collect="always" />
  </defs>
  <path
     id="path1361-4"
     style="fill:#ffb380;fill-opacity:1;fill-rule:evenodd;stroke:url(#linearGradient5977);stroke-width:1.59989214;stroke-linecap:butt;stroke-linejoin:miter;stroke-miterlimit:4;stroke-opacity:1;stroke-dasharray:none"
     d="m 459.61633,5.0146 c 9.0592,12.08952 10.70024,55.14313 8.02004,69.58059 -7.13434,32.07687 -20.1191,60.64346 -21.38675,96.24039 4.9731,38.37798 24.9785,80.85032 32.08017,124.9605 15.65264,1.84048 130.778,1.77146 152.25706,2.02661 7.10167,-44.11014 27.1071,-86.58251 32.08021,-124.9605 C 661.3994,137.26526 648.41464,108.69868 641.28028,76.6218 638.60011,62.18434 640.24115,19.13073 649.30031,7.04121 606.1303,5.71977 506.22513,7.75297 459.61633,5.0146 z"
     inkscape:connector-curvature="0"
     sodipodi:nodetypes="ccccccccc" />
  <path
     style="fill:#ff8535;fill-opacity:1;stroke:none"
     d="m 479.12372,163.65396 c 57.12221,14.45807 104.3312,8.32717 151.73036,2.59122 l -18.71437,20.44185 -101.0576,3.45496 -31.95839,-21.30559 z"
     id="path5695-6"
     inkscape:connector-curvature="0"
     sodipodi:nodetypes="cccccc" />
  <path
     id="path1369-8"
     style="fill:#6565ff;fill-opacity:1;fill-rule:evenodd;stroke:none"
     d="m 558.47773,6.25442 -0.61208,64.27598 c -0.35403,12.13807 -7.67469,39.3218 -5.9156,56.70936 1.86813,18.46551 2.70394,25.57869 6.52768,43.92171 0.46455,2.22853 4.16839,5.66465 1.81268,9.97184 -10.33217,18.89137 -31.75648,14.97832 -19.1564,-2.55595 2.25386,-3.1365 4.16813,-7.09306 4.23802,-7.59987 3.01797,-21.88794 5.40869,-30.78922 5.05994,-43.70813 -0.43472,-16.10355 -3.63323,-44.67791 -3.98722,-56.81598 L 545.37203,5.60979 c 4.70329,1.24216 8.53248,-0.79687 13.1057,0.64463 z"
     inkscape:connector-curvature="0"
     sodipodi:nodetypes="ccssssssccc" />
  <path
     id="path1371-9"
     style="fill:#ffffb5;fill-opacity:1;fill-rule:evenodd;stroke:none"
     d="m 552.79424,173.11232 c -13.96728,-4.01109 -18.32647,13.03829 -35.87719,11.04181 -13.65841,-2.60251 -27.51978,-4.4947 -37.33851,-20.53612 -7.57812,-0.22078 -14.34364,2.6668 -11.22734,13.45212 11.42307,6.15303 19.00982,26.34952 23.17056,44.80626 5.48212,36.58828 9.82682,38.62927 7.49345,75.21752 21.69995,3.94741 92.06573,0.55737 110.88629,1.33568 -2.33345,-36.58828 2.01129,-37.9383 7.49341,-74.52659 4.16071,-18.45673 11.74753,-38.65323 23.17054,-44.80625 3.1163,-10.78532 -3.64923,-13.673 -11.22734,-13.45209 -9.8187,16.04138 -23.68007,17.93358 -37.33851,20.53609 -17.55072,1.99647 -21.90988,-15.05291 -39.20536,-13.06843 z"
     inkscape:connector-curvature="0"
     sodipodi:nodetypes="cccccccccccc" />
  <path
     style="fill:none;stroke:#000000;stroke-width:1.2460829px;stroke-linecap:butt;stroke-linejoin:miter;stroke-opacity:1"
     d="m 496.01682,211.29128 c 48.51753,-11.2258 80.53697,-6.98465 109.63002,0"
     id="path3009-8"
     inkscape:connector-curvature="0"
     sodipodi:nodetypes="cc" />
  <path
     style="fill:none;stroke:#000000;stroke-width:1.20069087px;stroke-linecap:butt;stroke-linejoin:miter;stroke-opacity:1"
     d="m 502.00499,248.83745 c 45.04715,-11.2258 74.77628,-6.98465 101.78834,0"
     id="path3009-1-3"
     inkscape:connector-curvature="0"
     sodipodi:nodetypes="cc" />
  <path
     style="fill:none;stroke:#000000;stroke-width:1.2460829px;stroke-linecap:butt;stroke-linejoin:miter;stroke-opacity:1"
     d="m 505.22945,282.46347 c 48.51753,-11.2258 68.56059,-6.98465 97.65364,0"
     id="path3009-7-5"
     inkscape:connector-curvature="0"
     sodipodi:nodetypes="cc" />
  <rect
     style="fill:url(#linearGradient5747-09);fill-opacity:1;stroke:none"
     id="rect5731-8"
     width="172.5"
     height="18.25"
     x="468.32669"
     y="287.35352" />
  <text
     xml:space="preserve"
     style="font-size:40px;font-style:normal;font-weight:normal;line-height:125%;letter-spacing:0px;word-spacing:0px;fill:#000000;fill-opacity:1;stroke:none;font-family:Sans"
     x="490.82669"
     y="332.35352"
     id="text5767-0"
     sodipodi:linespacing="125%"><tspan
       sodipodi:role="line"
       id="tspan5769-5"
       x="490.82669"
       y="332.35352">Type 2 </tspan></text>
  <rect
     style="fill:url(#linearGradient5914-7);fill-opacity:1;stroke:none"
     id="rect5731-6-4"
     width="202"
     height="18.25"
     x="455.07669"
     y="-15.478516"
     transform="scale(1,-1)" />
  <path
     id="path1361"
     style="fill:#ffb380;fill-opacity:1;fill-rule:evenodd;stroke:url(#linearGradient5705);stroke-width:1.59989214;stroke-linecap:butt;stroke-linejoin:miter;stroke-miterlimit:4;stroke-opacity:1;stroke-dasharray:none"
     d="m 224.24799,3.16108 c 9.0592,12.08952 10.70024,55.14313 8.02004,69.58059 -7.13433,32.07687 -20.11909,60.64346 -21.38675,96.24039 4.97311,38.37798 24.97851,80.85032 32.08017,124.9605 15.65264,1.84048 130.778,1.77146 152.25706,2.02661 7.10167,-44.11014 27.1071,-86.58251 32.08021,-124.9605 C 426.03106,135.41174 413.0463,106.84516 405.91194,74.76828 403.23177,60.33082 404.87281,17.27721 413.93197,5.18769 370.76196,3.86625 270.85679,5.89945 224.248,3.16108 z"
     inkscape:connector-curvature="0"
     sodipodi:nodetypes="ccccccccc" />
  <path
     style="fill:#ff8535;fill-opacity:1;stroke:none"
     d="m 243.75538,161.80044 c 57.12221,14.45807 104.3312,8.32717 151.73036,2.59122 l -18.71437,20.44185 -101.0576,3.45496 -31.95839,-21.30559 z"
     id="path5695"
     inkscape:connector-curvature="0"
     sodipodi:nodetypes="cccccc" />
  <path
     id="path1369"
     style="fill:#6565ff;fill-opacity:1;fill-rule:evenodd;stroke:none"
     d="m 323.10939,4.4009 -0.61208,64.27598 c -0.35403,12.13807 -7.67469,39.3218 -5.9156,56.70936 1.86813,18.46551 2.70394,25.57869 6.52768,43.92171 0.46455,2.22853 4.16839,5.66465 1.81268,9.97184 -10.33217,18.89137 -31.75648,14.97832 -19.1564,-2.55595 2.25386,-3.1365 4.16813,-7.09306 4.23802,-7.59987 3.01797,-21.88794 5.40869,-30.78922 5.05994,-43.70813 -0.43472,-16.10355 -3.63323,-44.67791 -3.98722,-56.81598 L 310.00369,3.75627 c 4.70329,1.24216 8.53248,-0.79687 13.1057,0.64463 z"
     inkscape:connector-curvature="0"
     sodipodi:nodetypes="ccssssssccc" />
  <path
     id="path1371"
     style="fill:#ffffb5;fill-opacity:1;fill-rule:evenodd;stroke:none"
     d="m 317.4259,171.2588 c -13.96728,-4.01109 -18.32647,13.03829 -35.87719,11.04181 -13.65841,-2.60251 -27.51978,-4.4947 -37.33851,-20.53612 -7.57811,-0.22078 -14.34364,2.6668 -11.22734,13.45212 11.42307,6.15303 19.00982,26.34952 23.17057,44.80626 5.48212,36.58828 9.82682,38.62927 7.49345,75.21752 21.69994,3.94741 92.06572,0.55737 110.88628,1.33568 -2.33345,-36.58828 2.01129,-37.9383 7.49341,-74.52659 4.16071,-18.45673 11.74753,-38.65323 23.17054,-44.80625 3.1163,-10.78532 -3.64923,-13.673 -11.22734,-13.45209 -9.8187,16.04138 -23.68007,17.93358 -37.33851,20.53609 -17.55072,1.99647 -21.90988,-15.05291 -39.20536,-13.06843 z"
     inkscape:connector-curvature="0"
     sodipodi:nodetypes="cccccccccccc" />
  <path
     style="fill:none;stroke:#000000;stroke-width:1.2460829px;stroke-linecap:butt;stroke-linejoin:miter;stroke-opacity:1"
     d="m 260.64849,209.43776 c 48.51752,-11.2258 80.53696,-6.98465 109.63001,0"
     id="path3009"
     inkscape:connector-curvature="0"
     sodipodi:nodetypes="cc" />
  <path
     style="fill:none;stroke:#000000;stroke-width:1.20069087px;stroke-linecap:butt;stroke-linejoin:miter;stroke-opacity:1"
     d="m 266.63666,246.98393 c 45.04714,-11.2258 74.77627,-6.98465 101.78833,0"
     id="path3009-1"
     inkscape:connector-curvature="0"
     sodipodi:nodetypes="cc" />
  <path
     style="fill:none;stroke:#000000;stroke-width:1.2460829px;stroke-linecap:butt;stroke-linejoin:miter;stroke-opacity:1"
     d="m 269.86111,280.60995 c 48.51753,-11.2258 68.56059,-6.98465 97.65364,0"
     id="path3009-7"
     inkscape:connector-curvature="0"
     sodipodi:nodetypes="cc" />
  <path
     style="fill:none;stroke:#8c008c;stroke-width:8;stroke-linecap:round;stroke-linejoin:miter;stroke-miterlimit:4;stroke-opacity:1;stroke-dasharray:none"
     d="m 296.9086,174.66353 c -4.32618,2.48545 -3.41588,1.18351 -8.30349,3.85206 -13.70052,7.48027 -24.01467,-3.06106 -24.46315,-2.71529"
     id="path3804-4"
     inkscape:connector-curvature="0"
     sodipodi:nodetypes="csc" />
  <path
     style="fill:none;stroke:#000000;stroke-width:1;stroke-linecap:butt;stroke-linejoin:miter;stroke-miterlimit:4;stroke-opacity:1;stroke-dasharray:none;marker-start:url(#Arrow1Lstart)"
     d="m 307.37796,150.01642 -141.66413,0"
     id="path3908"
     inkscape:connector-curvature="0"
     sodipodi:nodetypes="cc" />
  <path
     style="fill:none;stroke:#000000;stroke-width:1;stroke-linecap:butt;stroke-linejoin:miter;stroke-miterlimit:4;stroke-opacity:1;stroke-dasharray:none;marker-start:url(#Arrow1Lstart)"
     d="m 306.63195,90.69988 -87.47856,0"
     id="path3908-5"
     inkscape:connector-curvature="0"
     sodipodi:nodetypes="cc" />
  <text
     xml:space="preserve"
     style="font-size:30px;font-style:normal;font-variant:normal;font-weight:normal;font-stretch:normal;text-align:start;line-height:125%;letter-spacing:0px;word-spacing:0px;writing-mode:lr-tb;text-anchor:start;fill:#000080;fill-opacity:1;stroke:none;font-family:Sans;-inkscape-font-specification:Sans"
     x="7.5882721"
     y="44.705856"
     id="text3910-2"
     sodipodi:linespacing="125%"><tspan
       sodipodi:role="line"
       id="tspan3912-7"
       x="7.5882721"
       y="44.705856">Endocervix</tspan></text>
  <path
     style="fill:none;stroke:#000000;stroke-width:1px;stroke-linecap:butt;stroke-linejoin:miter;stroke-opacity:1;marker-end:url(#Arrow1Lend)"
     d="m 157.43659,190.29483 35.02578,0 58.99331,-17.10062"
     id="path4777"
     inkscape:connector-curvature="0"
     sodipodi:nodetypes="ccc" />
  <text
     xml:space="preserve"
     style="font-size:30px;font-style:normal;font-variant:normal;font-weight:normal;font-stretch:normal;text-align:start;line-height:125%;letter-spacing:0px;word-spacing:0px;writing-mode:lr-tb;text-anchor:start;fill:#803300;fill-opacity:1;stroke:none;font-family:Sans;-inkscape-font-specification:Sans"
     x="7.6204834"
     y="198.41122"
     id="text3910-6"
     sodipodi:linespacing="125%"><tspan
       sodipodi:role="line"
       id="tspan3912-1"
       x="7.6204834"
       y="198.41122">Ectocervix</tspan></text>
  <text
     xml:space="preserve"
     style="font-size:30px;font-style:normal;font-variant:normal;font-weight:normal;font-stretch:normal;text-align:start;line-height:125%;letter-spacing:0px;word-spacing:0px;writing-mode:lr-tb;text-anchor:start;fill:#800080;fill-opacity:1;stroke:none;font-family:Sans;-inkscape-font-specification:Sans"
     x="6.797226"
     y="248.23984"
     id="text3910-6-2"
     sodipodi:linespacing="125%"><tspan
       sodipodi:role="line"
       id="tspan3912-1-3"
       x="6.797226"
       y="248.23984">Transformation </tspan><tspan
       sodipodi:role="line"
       x="6.797226"
       y="285.73984"
       id="tspan5697">zone</tspan></text>
  <path
     style="fill:none;stroke:#000000;stroke-width:1px;stroke-linecap:butt;stroke-linejoin:miter;stroke-opacity:1;marker-end:url(#Arrow1Lend)"
     d="m 212.87743,240.76401 45.03251,0 20.10847,-50.40317"
     id="path4777-1"
     inkscape:connector-curvature="0"
     sodipodi:nodetypes="ccc" />
  <path
     style="fill:none;stroke:#000000;stroke-width:1px;stroke-linecap:butt;stroke-linejoin:miter;stroke-opacity:1;marker-end:url(#Arrow1Lend-2)"
     d="m 258.25747,240.51879 81.84138,-52.76292"
     id="path5439"
     inkscape:connector-curvature="0"
     sodipodi:nodetypes="cc" />
  <text
     xml:space="preserve"
     style="font-size:30px;font-style:normal;font-variant:normal;font-weight:normal;font-stretch:normal;text-align:start;line-height:125%;letter-spacing:0px;word-spacing:0px;writing-mode:lr-tb;text-anchor:start;fill:#000080;fill-opacity:1;stroke:none;font-family:Sans;-inkscape-font-specification:Sans"
     x="70.655945"
     y="101.87178"
     id="text3910-2-6"
     sodipodi:linespacing="125%"><tspan
       sodipodi:role="line"
       id="tspan3912-7-8"
       x="70.655945"
       y="101.87178">not visible</tspan></text>
  <text
     xml:space="preserve"
     style="font-size:30px;font-style:normal;font-variant:normal;font-weight:normal;font-stretch:normal;text-align:start;line-height:125%;letter-spacing:0px;word-spacing:0px;writing-mode:lr-tb;text-anchor:start;fill:#000080;fill-opacity:1;stroke:none;font-family:Sans;-inkscape-font-specification:Sans"
     x="71.361839"
     y="157.49545"
     id="text3910-2-6-5"
     sodipodi:linespacing="125%"><tspan
       sodipodi:role="line"
       id="tspan3912-7-8-7"
       x="71.361839"
       y="157.49545">visible</tspan></text>
  <path
     style="fill:none;stroke:#0006d1;stroke-width:1.10000002;stroke-linecap:butt;stroke-linejoin:miter;stroke-miterlimit:4;stroke-opacity:1;stroke-dasharray:none"
     d="m 44.577453,50.53924 0,97.72104 23.259334,0"
     id="path5691"
     inkscape:connector-curvature="0"
     sodipodi:nodetypes="ccc" />
  <path
     style="fill:none;stroke:#0006d1;stroke-width:1.10000002;stroke-linecap:butt;stroke-linejoin:miter;stroke-miterlimit:4;stroke-opacity:1;stroke-dasharray:none"
     d="m 44.577453,91.25634 23.759334,0"
     id="path5693"
     inkscape:connector-curvature="0"
     sodipodi:nodetypes="cc" />
  <rect
     style="fill:url(#linearGradient5747);fill-opacity:1;stroke:none"
     id="rect5731"
     width="172.5"
     height="18.25"
     x="232.95834"
     y="285.5" />
  <path
     style="fill:none;stroke:#8c008c;stroke-width:8;stroke-linecap:round;stroke-linejoin:miter;stroke-miterlimit:4;stroke-opacity:1;stroke-dasharray:none"
     d="m 338.20002,175.01351 c 4.45118,3.23545 3.79088,1.93351 8.67849,4.60206 13.70052,7.48027 27.51467,-1.18606 27.96315,-0.84029"
     id="path3804-4-8"
     inkscape:connector-curvature="0"
     sodipodi:nodetypes="csc" />
  <text
     xml:space="preserve"
     style="font-size:40px;font-style:normal;font-weight:normal;line-height:125%;letter-spacing:0px;word-spacing:0px;fill:#000000;fill-opacity:1;stroke:none;font-family:Sans"
     x="254.45834"
     y="331.5"
     id="text5767"
     sodipodi:linespacing="125%"><tspan
       sodipodi:role="line"
       id="tspan5769"
       x="254.45834"
       y="331.5">Type 1 </tspan></text>
  <path
     style="fill:none;stroke:#8c008a;stroke-width:8;stroke-linecap:round;stroke-linejoin:miter;stroke-miterlimit:4;stroke-opacity:1;stroke-dasharray:none"
     d="m 546.77694,135.98297 c -2.71204,11.00452 0.13901,24.51441 -5.1487,35.93853 -6.1947,8.63005 -23.31036,10.36727 -31.62505,7.43343 -4.1994,-1.41067 -10.77118,-3.65613 -10.99289,-3.48519"
     id="path3804-4-0"
     inkscape:connector-curvature="0"
     sodipodi:nodetypes="cccc" />
  <path
     style="fill:none;stroke:#8c008a;stroke-width:8;stroke-linecap:round;stroke-linejoin:miter;stroke-miterlimit:4;stroke-opacity:1;stroke-dasharray:none"
     d="m 557.06836,146.33295 c 0.80372,9.10762 2.43591,20.03727 7.7746,26.52822 5.02749,6.11258 13.62493,8.4493 23.02022,10.29241"
     id="path3804-4-8-2"
     inkscape:connector-curvature="0"
     sodipodi:nodetypes="csc" />
  <rect
     style="fill:url(#linearGradient5914);fill-opacity:1;stroke:none"
     id="rect5731-6"
     width="202"
     height="18.25"
     x="219.70834"
     y="-13.625"
     transform="scale(1,-1)" />
  <path
     id="path1361-4-7"
     style="fill:#ffb380;fill-opacity:1;fill-rule:evenodd;stroke:url(#linearGradient6089);stroke-width:1.59989214;stroke-linecap:butt;stroke-linejoin:miter;stroke-miterlimit:4;stroke-opacity:1;stroke-dasharray:none"
     d="m 698.61633,5.5146 c 9.0592,12.08952 10.70024,55.14313 8.02004,69.58059 -7.13434,32.07687 -20.1191,60.64346 -21.38675,96.24039 4.9731,38.37798 24.9785,80.85032 32.08017,124.9605 15.65264,1.84048 130.778,1.77146 152.25706,2.02661 7.10167,-44.11014 27.1071,-86.58251 32.08021,-124.9605 C 900.3994,137.76526 887.41464,109.19868 880.28028,77.1218 877.60011,62.68434 879.24115,19.63073 888.30031,7.54121 845.1303,6.21977 745.22513,8.25297 698.61633,5.5146 z"
     inkscape:connector-curvature="0"
     sodipodi:nodetypes="ccccccccc" />
  <path
     style="fill:#ff8535;fill-opacity:1;stroke:none"
     d="m 718.12372,164.15396 c 57.12221,14.45807 104.3312,8.32717 151.73036,2.59122 l -18.71437,20.44185 -101.0576,3.45496 -31.95839,-21.30559 z"
     id="path5695-6-6"
     inkscape:connector-curvature="0"
     sodipodi:nodetypes="cccccc" />
  <path
     id="path1369-8-7"
     style="fill:#6565ff;fill-opacity:1;fill-rule:evenodd;stroke:none"
     d="m 797.47773,6.75442 -0.61208,64.27598 c -0.35403,12.13807 -7.67469,39.3218 -5.9156,56.70936 1.86813,18.46551 2.70394,25.57869 6.52768,43.92171 0.46455,2.22853 4.16839,5.66465 1.81268,9.97184 -10.33217,18.89137 -31.75648,14.97832 -19.1564,-2.55595 2.25386,-3.1365 4.16813,-7.09306 4.23802,-7.59987 3.01797,-21.88794 5.40869,-30.78922 5.05994,-43.70813 -0.43472,-16.10355 -3.63323,-44.67791 -3.98722,-56.81598 L 784.37203,6.10979 c 4.70329,1.24216 8.53248,-0.79687 13.1057,0.64463 z"
     inkscape:connector-curvature="0"
     sodipodi:nodetypes="ccssssssccc" />
  <path
     id="path1371-9-8"
     style="fill:#ffffb5;fill-opacity:1;fill-rule:evenodd;stroke:none"
     d="m 791.79424,173.61232 c -13.96728,-4.01109 -18.32647,13.03829 -35.87719,11.04181 -13.65841,-2.60251 -27.51978,-4.4947 -37.33851,-20.53612 -7.57812,-0.22078 -14.34364,2.6668 -11.22734,13.45212 11.42307,6.15303 19.00982,26.34952 23.17056,44.80626 5.48212,36.58828 9.82682,38.62927 7.49345,75.21752 21.69995,3.94741 92.06573,0.55737 110.88629,1.33568 -2.33345,-36.58828 2.01129,-37.9383 7.49341,-74.52659 4.16071,-18.45673 11.74753,-38.65323 23.17054,-44.80625 3.1163,-10.78532 -3.64923,-13.673 -11.22734,-13.45209 -9.8187,16.04138 -23.68007,17.93358 -37.33851,20.53609 -17.55072,1.99647 -21.90988,-15.05291 -39.20536,-13.06843 z"
     inkscape:connector-curvature="0"
     sodipodi:nodetypes="cccccccccccc" />
  <path
     style="fill:none;stroke:#000000;stroke-width:1.2460829px;stroke-linecap:butt;stroke-linejoin:miter;stroke-opacity:1"
     d="m 735.01682,211.79128 c 48.51753,-11.2258 80.53697,-6.98465 109.63002,0"
     id="path3009-8-3"
     inkscape:connector-curvature="0"
     sodipodi:nodetypes="cc" />
  <path
     style="fill:none;stroke:#000000;stroke-width:1.20069087px;stroke-linecap:butt;stroke-linejoin:miter;stroke-opacity:1"
     d="m 741.00499,249.33745 c 45.04715,-11.2258 74.77628,-6.98465 101.78834,0"
     id="path3009-1-3-6"
     inkscape:connector-curvature="0"
     sodipodi:nodetypes="cc" />
  <path
     style="fill:none;stroke:#000000;stroke-width:1.2460829px;stroke-linecap:butt;stroke-linejoin:miter;stroke-opacity:1"
     d="m 744.22945,282.96347 c 48.51753,-11.2258 68.56059,-6.98465 97.65364,0"
     id="path3009-7-5-4"
     inkscape:connector-curvature="0"
     sodipodi:nodetypes="cc" />
  <rect
     style="fill:url(#linearGradient5747-09-9);fill-opacity:1;stroke:none"
     id="rect5731-8-4"
     width="172.5"
     height="18.25"
     x="707.32666"
     y="287.85352" />
  <text
     xml:space="preserve"
     style="font-size:40px;font-style:normal;font-weight:normal;line-height:125%;letter-spacing:0px;word-spacing:0px;fill:#000000;fill-opacity:1;stroke:none;font-family:Sans"
     x="730.82666"
     y="332.85352"
     id="text5767-0-1"
     sodipodi:linespacing="125%"><tspan
       sodipodi:role="line"
       id="tspan5769-5-9"
       x="730.82666"
       y="332.85352">Type 3 </tspan></text>
  <rect
     style="fill:url(#linearGradient5914-7-7);fill-opacity:1;stroke:none"
     id="rect5731-6-4-5"
     width="202"
     height="18.25"
     x="694.07666"
     y="-15.978516"
     transform="scale(1,-1)" />
  <path
     style="fill:none;stroke:#8c008a;stroke-width:8;stroke-linecap:round;stroke-linejoin:miter;stroke-miterlimit:4;stroke-opacity:1;stroke-dasharray:none"
     d="m 784.71628,106.07738 c -0.48677,1.97516 2.74124,25.59779 0.0588,36.54665 -1.74475,7.1215 -0.74,15.15612 -2.02534,22.70486"
     id="path3804-4-0-5"
     inkscape:connector-curvature="0"
     sodipodi:nodetypes="csc" />
  <path
     style="fill:none;stroke:#8c008a;stroke-width:8;stroke-linecap:round;stroke-linejoin:miter;stroke-miterlimit:4;stroke-opacity:1;stroke-dasharray:none"
     d="m 794.30059,120.67 c 0.63381,7.18222 -0.73075,37.40699 7.94864,51.28475 2.32676,3.72033 6.68791,4.29699 10.43256,5.2955"
     id="path3804-4-8-2-7"
     inkscape:connector-curvature="0"
     sodipodi:nodetypes="csc" />
  <path
     style="fill:none;stroke:#000000;stroke-width:3.19978428;stroke-linecap:butt;stroke-linejoin:miter;stroke-miterlimit:4;stroke-opacity:1;stroke-dasharray:6.39956856, 6.39956856;stroke-dashoffset:0"
     d="m 36.604813,126.52428 873.700787,0"
     id="path3881-1"
     inkscape:connector-curvature="0"
     sodipodi:nodetypes="cc" />
  <rect
     style="fill:none;stroke:#000000;stroke-width:1.0027318;stroke-linecap:round;stroke-linejoin:miter;stroke-miterlimit:4;stroke-opacity:1;stroke-dasharray:none;stroke-dashoffset:0"
     id="rect6148"
     width="910.95703"
     height="349"
     x="0.5013659"
     y="0.5" />
</svg>
